<?xml version="1.0" encoding="UTF-8"?>
<svg id="Capa_1" xmlns="http://www.w3.org/2000/svg" version="1.1" viewBox="0 0 1080 1080">
  <!-- Generator: Adobe Illustrator 29.2.1, SVG Export Plug-In . SVG Version: 2.1.0 Build 116)  -->
  <defs>
    <style>
      .st0 {
        fill: #fff;
      }

      .st1 {
        fill: #4561b6;
      }
    </style>
  </defs>
  <path class="st1" d="M1080,304.7v470.6c0,168.27-136.41,304.7-304.7,304.7h-470.59C136.42,1080,0,943.57,0,775.3v-470.6C0,136.42,136.42,0,304.71,0h470.59c168.29,0,304.7,136.42,304.7,304.7"/>
  <path class="st0" d="M428.97,1080l.76-385.74h-115.12v-137.47h115.09v-80.13h-.52l.12-11.46c.35-35.08,2.26-76.06,13.7-113.91,11.92-39.43,32.68-70.56,63.46-95.21,25.94-20.74,57.49-34.79,91.24-40.63,23.82-4.09,48.81-6.08,76.41-6.08,32.06,0,67.13,2.72,107.19,8.29l9.78,1.36v129.02l-26.75.2-40.4.29c-28.58.2-58.49,3.34-83.6,24.76-24.85,21.22-37.87,54.21-37.67,95.42l-.57,73.91-.11,14.15h177.79l-26.38,142.26h-149.02l-.56,380.95h-174.84"/>
</svg>