<?xml version="1.0" encoding="UTF-8"?>
<svg id="Capa_1" xmlns="http://www.w3.org/2000/svg" version="1.1" viewBox="0 0 1080 1080">
  <!-- Generator: Adobe Illustrator 29.2.1, SVG Export Plug-In . SVG Version: 2.1.0 Build 116)  -->
  <defs>
    <style>
      .st0 {
        fill: #fff;
      }
    </style>
  </defs>
  <path d="M1080,300.62v478.74c0,166.03-134.59,300.64-300.62,300.64h-478.75C134.6,1080,0,945.4,0,779.37v-478.74C0,134.59,134.6,0,300.63,0h478.75c166.03,0,300.62,134.59,300.62,300.62Z"/>
  <path class="st0" d="M683.81,518.05c-2.59-1.24-5.22-2.43-7.89-3.58-4.64-85.47-51.34-134.4-129.76-134.91h-1.07c-46.91,0-85.92,20.02-109.93,56.46l43.14,29.59c17.93-27.22,46.08-33.02,66.82-33.02h.71c25.82.16,45.31,7.67,57.91,22.31,9.18,10.66,15.32,25.39,18.36,43.98-22.89-3.89-47.65-5.08-74.12-3.57-74.56,4.3-122.5,47.78-119.28,108.21,1.64,30.65,16.91,57.02,43,74.25,22.06,14.56,50.47,21.68,80,20.07,38.99-2.14,69.58-17.02,90.92-44.22,16.21-20.65,26.46-47.43,30.99-81.16,18.58,11.21,32.36,25.97,39.96,43.71,12.93,30.16,13.68,79.72-26.75,120.12-35.43,35.4-78.03,50.71-142.39,51.18-71.4-.53-125.39-23.43-160.5-68.06-32.87-41.79-49.86-102.15-50.5-179.41.63-77.26,17.63-137.62,50.5-179.41,35.11-44.63,89.1-67.53,160.5-68.06,71.91.53,126.85,23.54,163.3,68.38,17.87,21.99,31.34,49.65,40.23,81.9l50.54-13.48c-10.77-39.69-27.72-73.89-50.77-102.26-46.74-57.49-115.08-86.95-203.13-87.56h-.35c-87.88.61-155.46,30.18-200.86,87.89-40.4,51.36-61.24,122.82-61.94,212.39v.42c.7,89.57,21.54,161.04,61.94,212.39,45.4,57.71,112.98,87.29,200.86,87.89h.35c78.12-.53,133.2-20.99,178.57-66.32,59.35-59.3,57.57-133.63,38-179.26-14.04-32.72-40.79-59.3-77.38-76.85ZM548.91,644.88c-32.68,1.84-66.63-12.83-68.3-44.25-1.24-23.3,16.58-49.29,70.31-52.38,6.15-.36,12.19-.53,18.12-.53,19.52,0,37.77,1.9,54.37,5.53-6.19,77.32-42.5,89.88-74.5,91.64Z"/>
</svg>