<?xml version="1.0" encoding="UTF-8"?>
<svg id="Capa_1" xmlns="http://www.w3.org/2000/svg" version="1.1" viewBox="0 0 1080 1080">
  <!-- Generator: Adobe Illustrator 29.2.1, SVG Export Plug-In . SVG Version: 2.1.0 Build 116)  -->
  <defs>
    <style>
      .st0 {
        fill: #ff1753;
      }

      .st0, .st1, .st2 {
        fill-rule: evenodd;
      }

      .st1 {
        fill: #fff;
      }

      .st2 {
        fill: #00c9d0;
      }
    </style>
  </defs>
  <path d="M1080,304.71v470.59c0,168.27-136.42,304.71-304.71,304.71h-470.59C136.42,1080,0,943.57,0,775.29v-470.59C0,136.42,136.42,0,304.71,0h470.59c168.29,0,304.71,136.42,304.71,304.71Z"/>
  <g>
    <path class="st0" d="M663.37,459.62c37.33,26.67,83.06,42.37,132.45,42.37v-95c-9.35,0-18.67-.97-27.81-2.91v74.78c-49.39,0-95.11-15.69-132.45-42.36v193.86c0,96.98-78.65,175.59-175.68,175.59-36.2,0-69.85-10.94-97.8-29.7,31.9,32.6,76.39,52.83,125.61,52.83,97.03,0,175.69-78.61,175.69-175.59v-193.86h0ZM697.68,363.78c-19.08-20.83-31.6-47.75-34.31-77.52v-12.22h-26.36c6.63,37.83,29.27,70.15,60.67,89.74h0ZM423.43,701.83c-10.65-13.97-16.42-31.06-16.39-48.63,0-44.36,35.98-80.32,80.37-80.32,8.27,0,16.49,1.26,24.38,3.76v-97.12c-9.21-1.26-18.51-1.79-27.81-1.6v75.59c-7.89-2.5-16.11-3.77-24.39-3.76-44.39,0-80.36,35.96-80.36,80.32,0,31.36,17.98,58.52,44.2,71.75Z"/>
    <path class="st1" d="M635.55,436.5c37.34,26.67,83.07,42.36,132.45,42.36v-74.78c-27.57-5.87-51.97-20.27-70.32-40.3-31.41-19.59-54.04-51.91-60.67-89.74h-69.24v379.43c-.16,44.23-36.08,80.05-80.37,80.05-26.1,0-49.29-12.43-63.97-31.69-26.22-13.23-44.2-40.39-44.2-71.75,0-44.36,35.97-80.32,80.36-80.32,8.5,0,16.7,1.32,24.39,3.76v-75.59c-95.32,1.97-171.98,79.81-171.98,175.55,0,47.79,19.09,91.12,50.08,122.77,27.95,18.76,61.6,29.7,97.8,29.7,97.02,0,175.68-78.61,175.68-175.59v-193.86Z"/>
    <path class="st2" d="M768,404.08v-20.22c-24.86.04-49.23-6.92-70.32-20.08,18.67,20.43,43.26,34.52,70.32,40.3ZM637.01,274.05c-.63-3.61-1.12-7.25-1.46-10.91v-12.22h-95.6v379.43c-.15,44.23-36.07,80.05-80.36,80.05-13.01,0-25.28-3.08-36.16-8.57,14.69,19.26,37.87,31.69,63.97,31.69,44.29,0,80.21-35.81,80.37-80.05v-379.43h69.24ZM483.98,477.93v-21.53c-7.99-1.09-16.04-1.64-24.1-1.63-97.03,0-175.69,78.61-175.69,175.58,0,60.8,30.91,114.38,77.89,145.89-30.98-31.65-50.07-74.98-50.07-122.77,0-95.74,76.66-173.58,171.98-175.55h0Z"/>
  </g>
</svg>