<?xml version="1.0" encoding="UTF-8"?>
<svg id="Capa_1" xmlns="http://www.w3.org/2000/svg" version="1.1" viewBox="0 0 1080 1080">
  <!-- Generator: Adobe Illustrator 29.2.1, SVG Export Plug-In . SVG Version: 2.1.0 Build 116)  -->
  <defs>
    <style>
      .st0 {
        fill: #fcfcfd;
      }

      .st1 {
        fill: #141312;
      }
    </style>
  </defs>
  <path class="st1" d="M1080,304.7v470.6c0,168.27-136.42,304.7-304.7,304.7h-470.6C136.42,1080,0,943.57,0,775.3v-470.6C0,136.42,136.42,0,304.7,0h470.6c168.28,0,304.7,136.42,304.7,304.7"/>
  <path class="st0" d="M529.23,584.52l-23.92-35-185.8-271.83h78.75l151.51,219.64,24.01,34.8,186.35,270.17h-82.04l-148.85-217.78ZM599.28,502.13l-23.98-34.77-157.06-227.71h-170.8l232.32,339.87,23.95,35.04,154.31,225.78h174.56l-233.29-338.22"/>
  <path class="st0" d="M505.31,549.52l23.92,35-25.54,30.04-191.96,225.78h-54.18l222.19-260.82,25.56-30"/>
  <path class="st0" d="M822.44,239.66l-223.16,262.47-25.5,30.01-24.01-34.8,25.52-29.97,193.98-227.71h53.16"/>
</svg>