<?xml version="1.0" encoding="UTF-8"?>
<svg id="Capa_1" xmlns="http://www.w3.org/2000/svg" version="1.1" viewBox="0 0 1080 1080">
  <!-- Generator: Adobe Illustrator 29.2.1, SVG Export Plug-In . SVG Version: 2.1.0 Build 116)  -->
  <defs>
    <style>
      .st0 {
        fill: #fff;
      }

      .st1 {
        fill: #3c3;
      }
    </style>
  </defs>
  <path class="st1" d="M1080,304.71v470.59c0,168.27-136.42,304.71-304.71,304.71h-470.59C136.42,1080,0,943.57,0,775.29v-470.59C0,136.42,136.42,0,304.71,0h470.59c168.29,0,304.71,136.42,304.71,304.71Z"/>
  <g>
    <path class="st0" d="M867.05,523.05c-4.42-173.98-145.25-310.27-320.62-310.27s-312.95,133.65-320.4,304.26c-.22,4.67-.37,9.35-.37,14.06,0,56.62,15.1,112.04,43.73,160.54.69,1.16.84,2.55.4,3.83l-56.82,167.86c-.77,2.28,1.38,4.47,3.68,3.74l174.79-55.59c1.19-.38,2.47-.26,3.57.33,46.42,24.67,98.69,37.69,151.42,37.69,176.87,0,320.78-142.83,320.78-318.4,0-2.31-.15-8.05-.15-8.05ZM329.9,674.5c-28.76-42.54-43.91-91.91-43.91-143.4,0-8.23.41-16.43,1.24-25.05,12.94-133.06,124.36-233.4,259.18-233.4s249.18,104.65,259.61,238.23c.6,7.86.88,14.28.88,20.19,0,142.52-116.86,258.46-260.5,258.46-38.31,0-75.74-8.32-110.03-24.27-9.57-4.45-27.72-15.3-33.45-18.76-1.17-.7-2.53-.84-3.83-.43l-87.97,27.99c-2.02.64-3.91-1.28-3.23-3.29l28.43-83.78c.49-1.44.26-3.03-.63-4.27-1.73-2.4-4.57-6.38-5.81-8.21Z"/>
    <path class="st0" d="M698.94,601.93c-2.01-3.19-15.84-9.84-15.84-9.84-5.46-2.71-45.64-22.39-53.19-25.1-6.46-2.32-13.78-4.95-20.34,4.81-5,7.38-19.59,24.43-24.34,29.8-3.34,3.79-6.39,5.03-13.78,1.34-1.24-.6-37.02-15.9-61.7-37.73-21.89-19.33-37.06-43.23-42.56-52.61-3.39-5.72-1.18-8.39,3-12.57,2.58-2.52,13.91-16.23,14.81-17.54,1.8-2.75,5.03-9.35,5.03-9.35,3.27-6.45,1.23-12.07-.59-15.76-1.31-2.55-21.91-52.16-23.87-56.83-5.87-14.01-12.14-14.74-18.13-14.4-2.92.21-30.18.42-38.86,9.84l-1.53,1.62c-8.52,9.02-26.27,27.78-26.27,64.08,0,8.35,1.34,17.13,4.1,26.86,5.06,17.5,14.96,36.64,28.06,54.16.29.37,20.23,28.07,30.21,39.55,31.54,36.32,67.17,63.15,103.12,77.2,45.93,17.95,65.54,22.05,76.67,22.05,4.87,0,15.12-2.48,17.35-2.69,14.03-1.26,47.39-18.63,54.38-38.15,6.63-18.45,6.77-34.58,4.29-38.72Z"/>
  </g>
</svg>