<?xml version="1.0" encoding="UTF-8"?>
<svg id="Capa_1" xmlns="http://www.w3.org/2000/svg" version="1.1" viewBox="0 0 1080 1080">
  <!-- Generator: Adobe Illustrator 29.2.1, SVG Export Plug-In . SVG Version: 2.1.0 Build 116)  -->
  <defs>
    <style>
      .st0 {
        fill: #fd0000;
      }

      .st1 {
        fill: #fff;
      }
    </style>
  </defs>
  <path class="st0" d="M1080,304.71v470.59c0,168.27-136.42,304.71-304.71,304.71h-470.59C136.42,1080,0,943.57,0,775.29v-470.59C0,136.42,136.42,0,304.71,0h470.59c168.29,0,304.71,136.42,304.71,304.71Z"/>
  <path class="st1" d="M853.63,382.44c-7.53-28.17-29.71-50.35-57.87-57.88-51.05-13.68-255.76-13.68-255.76-13.68,0,0-204.71,0-255.76,13.68-28.17,7.53-50.35,29.71-57.88,57.88-13.68,51.05-13.68,157.56-13.68,157.56,0,0,0,106.51,13.68,157.56,7.53,28.16,29.71,50.35,57.88,57.88,51.05,13.68,255.76,13.68,255.76,13.68,0,0,204.71,0,255.76-13.68,28.17-7.53,50.35-29.71,57.87-57.88,13.68-51.05,13.68-157.56,13.68-157.56,0,0,0-106.51-13.68-157.56ZM474.54,638.19v-196.39l170.07,98.2-170.07,98.19Z"/>
</svg>